<svg xmlns="http://www.w3.org/2000/svg" viewBox="0 0 64 64" xmlns:xlink="http://www.w3.org/1999/xlink" version="1.1">
<g id="surface1">
<path style=" fill:#FAEFDE;" d="M 55 27 L 31 7 L 7 27 L 7 55 L 55 55 Z" />
<path style=" fill:#EFD8BE;" d="M 31 7 L 7 27 L 7 28.7305 C 7 29.5078 7.44531 30.2148 8.14844 30.543 C 8.85156 30.875 9.68359 30.7656 10.2813 30.2695 L 30.3594 13.5313 C 30.7305 13.2227 31.2695 13.2227 31.6406 13.5313 L 51.7188 30.2695 C 52.3164 30.7656 53.1484 30.875 53.8516 30.543 C 54.5547 30.2148 55 29.5078 55 28.7305 L 55 27 Z" />
<path style=" fill:#F9DD8F;" d="M 7 45 L 55 45 L 55 55 L 7 55 Z" />
<path style=" fill:#ED7899;" d="M 25 35 L 37 35 L 37 55 L 25 55 Z" />
<path style=" fill:#BBDEF9;" d="M 35 23 C 35 25.2109 33.2109 27 31 27 C 28.7891 27 27 25.2109 27 23 C 27 20.7891 28.7891 19 31 19 C 33.2109 19 35 20.7891 35 23 Z" />
<path style=" fill:#8D6C9F;" d="M 59.3594 31.7695 C 59.7852 32.125 60.418 32.0664 60.7695 31.6406 C 61.125 31.2148 61.0664 30.582 60.6406 30.2305 L 31.6406 6.23047 L 31.5508 6.17969 L 31.1914 6 L 30.8203 6 L 30.6289 6.05859 L 30.4609 6.14844 L 30.3594 6.19922 L 18 16.4609 L 18 13.0586 C 18 12.5078 17.5508 12.0586 17 12.0586 C 16.4492 12.0586 16 12.5078 16 13.0586 L 16 18.0586 C 16 18.0586 16 18.0586 16 18.1094 L 14 19.7695 L 14 9.05859 C 14 8.50781 13.5508 8.05859 13 8.05859 C 12.4492 8.05859 12 8.50781 12 9.05859 L 12 21.0586 C 12.0039 21.168 12.0234 21.2773 12.0586 21.3789 L 1.35938 30.2305 C 0.933594 30.582 0.875 31.2148 1.23047 31.6406 C 1.58203 32.0664 2.21484 32.125 2.64063 31.7695 L 6 29 L 6 54 L 3 54 C 2.44922 54 2 54.4492 2 55 C 2 55.5508 2.44922 56 3 56 L 59 56 C 59.5508 56 60 55.5508 60 55 C 60 54.4492 59.5508 54 59 54 L 56 54 L 56 29 Z M 8 46 L 24 46 L 24 54 L 8 54 Z M 26 36 L 36 36 L 36 54 L 26 54 Z M 38 54 L 38 46 L 54 46 L 54 54 Z M 54 44 L 38 44 L 38 36 C 38 34.8945 37.1055 34 36 34 L 26 34 C 24.8945 34 24 34.8945 24 36 L 24 44 L 8 44 L 8 27.3281 L 31 8.32813 L 54 27.3281 Z" />
<path style=" fill:#8D6C9F;" d="M 16 48 C 15.4492 48 15 48.4492 15 49 L 15 51 C 15 51.5508 15.4492 52 16 52 C 16.5508 52 17 51.5508 17 51 L 17 49 C 17 48.4492 16.5508 48 16 48 Z" />
<path style=" fill:#8D6C9F;" d="M 11 48 C 10.4492 48 10 48.4492 10 49 L 10 51 C 10 51.5508 10.4492 52 11 52 C 11.5508 52 12 51.5508 12 51 L 12 49 C 12 48.4492 11.5508 48 11 48 Z" />
<path style=" fill:#8D6C9F;" d="M 21 48 C 20.4492 48 20 48.4492 20 49 L 20 51 C 20 51.5508 20.4492 52 21 52 C 21.5508 52 22 51.5508 22 51 L 22 49 C 22 48.4492 21.5508 48 21 48 Z" />
<path style=" fill:#8D6C9F;" d="M 41 48 C 40.4492 48 40 48.4492 40 49 L 40 51 C 40 51.5508 40.4492 52 41 52 C 41.5508 52 42 51.5508 42 51 L 42 49 C 42 48.4492 41.5508 48 41 48 Z" />
<path style=" fill:#8D6C9F;" d="M 46 48 C 45.4492 48 45 48.4492 45 49 L 45 51 C 45 51.5508 45.4492 52 46 52 C 46.5508 52 47 51.5508 47 51 L 47 49 C 47 48.4492 46.5508 48 46 48 Z" />
<path style=" fill:#8D6C9F;" d="M 51 48 C 50.4492 48 50 48.4492 50 49 L 50 51 C 50 51.5508 50.4492 52 51 52 C 51.5508 52 52 51.5508 52 51 L 52 49 C 52 48.4492 51.5508 48 51 48 Z" />
<path style=" fill:#8D6C9F;" d="M 31 18 C 28.2383 18 26 20.2383 26 23 C 26 25.7617 28.2383 28 31 28 C 33.7617 28 36 25.7617 36 23 C 36 20.2383 33.7617 18 31 18 Z M 31 26.2109 C 29.2266 26.2109 27.7891 24.7734 27.7891 23 C 27.7891 21.2266 29.2266 19.7891 31 19.7891 C 32.7734 19.7891 34.2109 21.2266 34.2109 23 C 34.2109 24.7734 32.7734 26.2109 31 26.2109 Z" />
<path style=" fill:#8D6C9F;" d="M 33 43 C 32.4492 43 32 43.4492 32 44 L 32 46 C 32 46.5508 32.4492 47 33 47 C 33.5508 47 34 46.5508 34 46 L 34 44 C 34 43.4492 33.5508 43 33 43 Z" />
</g>
</svg>